<svg width="763" height="28" viewBox="0 0 763 28" fill="none" xmlns="http://www.w3.org/2000/svg">
<rect x="632" width="131" height="28" fill="#001470"/>
<rect x="0.5" y="0.5" width="631" height="27" stroke="#F2F2F2"/>
<path d="M669.516 14.5391H666.477V13.3125H669.516C670.104 13.3125 670.581 13.2188 670.945 13.0312C671.31 12.8438 671.576 12.5833 671.742 12.25C671.914 11.9167 672 11.5365 672 11.1094C672 10.7188 671.914 10.3516 671.742 10.0078C671.576 9.66406 671.31 9.38802 670.945 9.17969C670.581 8.96615 670.104 8.85938 669.516 8.85938H666.828V19H665.32V7.625H669.516C670.375 7.625 671.102 7.77344 671.695 8.07031C672.289 8.36719 672.74 8.77865 673.047 9.30469C673.354 9.82552 673.508 10.4219 673.508 11.0938C673.508 11.8229 673.354 12.4453 673.047 12.9609C672.74 13.4766 672.289 13.8698 671.695 14.1406C671.102 14.4062 670.375 14.5391 669.516 14.5391ZM682.641 17.7734V19H676.617V17.7734H682.641ZM676.922 7.625V19H675.414V7.625H676.922ZM681.844 12.5156V13.7422H676.617V12.5156H681.844ZM682.562 7.625V8.85938H676.617V7.625H682.562ZM690.57 16.125C690.57 15.8594 690.529 15.625 690.445 15.4219C690.367 15.2135 690.227 15.026 690.023 14.8594C689.826 14.6927 689.549 14.5339 689.195 14.3828C688.846 14.2318 688.404 14.0781 687.867 13.9219C687.305 13.7552 686.797 13.5703 686.344 13.3672C685.891 13.1589 685.503 12.9219 685.18 12.6562C684.857 12.3906 684.609 12.0859 684.438 11.7422C684.266 11.3984 684.18 11.0052 684.18 10.5625C684.18 10.1198 684.271 9.71094 684.453 9.33594C684.635 8.96094 684.896 8.63542 685.234 8.35938C685.578 8.07812 685.987 7.85938 686.461 7.70312C686.935 7.54688 687.464 7.46875 688.047 7.46875C688.901 7.46875 689.625 7.63281 690.219 7.96094C690.818 8.28385 691.273 8.70833 691.586 9.23438C691.898 9.75521 692.055 10.3125 692.055 10.9062H690.555C690.555 10.4792 690.464 10.1016 690.281 9.77344C690.099 9.4401 689.823 9.17969 689.453 8.99219C689.083 8.79948 688.615 8.70312 688.047 8.70312C687.51 8.70312 687.068 8.78385 686.719 8.94531C686.37 9.10677 686.109 9.32552 685.938 9.60156C685.771 9.8776 685.688 10.1927 685.688 10.5469C685.688 10.7865 685.737 11.0052 685.836 11.2031C685.94 11.3958 686.099 11.5755 686.312 11.7422C686.531 11.9089 686.807 12.0625 687.141 12.2031C687.479 12.3438 687.883 12.4792 688.352 12.6094C688.997 12.7917 689.555 12.9948 690.023 13.2188C690.492 13.4427 690.878 13.6953 691.18 13.9766C691.487 14.2526 691.714 14.5677 691.859 14.9219C692.01 15.2708 692.086 15.6667 692.086 16.1094C692.086 16.5729 691.992 16.9922 691.805 17.3672C691.617 17.7422 691.349 18.0625 691 18.3281C690.651 18.5938 690.232 18.7995 689.742 18.9453C689.258 19.0859 688.716 19.1562 688.117 19.1562C687.591 19.1562 687.073 19.0833 686.562 18.9375C686.057 18.7917 685.596 18.5729 685.18 18.2812C684.768 17.9896 684.438 17.6302 684.188 17.2031C683.943 16.7708 683.82 16.2708 683.82 15.7031H685.32C685.32 16.0938 685.396 16.4297 685.547 16.7109C685.698 16.987 685.904 17.2161 686.164 17.3984C686.43 17.5807 686.729 17.7161 687.062 17.8047C687.401 17.888 687.753 17.9297 688.117 17.9297C688.643 17.9297 689.089 17.8568 689.453 17.7109C689.818 17.5651 690.094 17.3568 690.281 17.0859C690.474 16.8151 690.57 16.4948 690.57 16.125ZM699.844 17.6953L702.734 19.9844L701.719 20.9219L698.875 18.6641L699.844 17.6953ZM702.695 12.9531V13.6719C702.695 14.526 702.589 15.2917 702.375 15.9688C702.161 16.6458 701.854 17.2214 701.453 17.6953C701.052 18.1693 700.57 18.5312 700.008 18.7812C699.451 19.0312 698.826 19.1562 698.133 19.1562C697.461 19.1562 696.844 19.0312 696.281 18.7812C695.724 18.5312 695.24 18.1693 694.828 17.6953C694.422 17.2214 694.107 16.6458 693.883 15.9688C693.659 15.2917 693.547 14.526 693.547 13.6719V12.9531C693.547 12.099 693.656 11.3359 693.875 10.6641C694.099 9.98698 694.414 9.41146 694.82 8.9375C695.227 8.45833 695.708 8.09375 696.266 7.84375C696.828 7.59375 697.445 7.46875 698.117 7.46875C698.81 7.46875 699.438 7.59375 700 7.84375C700.562 8.09375 701.044 8.45833 701.445 8.9375C701.846 9.41146 702.154 9.98698 702.367 10.6641C702.586 11.3359 702.695 12.099 702.695 12.9531ZM701.203 13.6719V12.9375C701.203 12.2604 701.133 11.6615 700.992 11.1406C700.857 10.6198 700.656 10.1823 700.391 9.82812C700.125 9.47396 699.802 9.20573 699.422 9.02344C699.042 8.84115 698.607 8.75 698.117 8.75C697.654 8.75 697.232 8.84115 696.852 9.02344C696.477 9.20573 696.154 9.47396 695.883 9.82812C695.612 10.1823 695.404 10.6198 695.258 11.1406C695.112 11.6615 695.039 12.2604 695.039 12.9375V13.6719C695.039 14.3542 695.112 14.9583 695.258 15.4844C695.404 16.0052 695.612 16.4453 695.883 16.8047C696.159 17.1589 696.487 17.4271 696.867 17.6094C697.247 17.7917 697.669 17.8828 698.133 17.8828C698.622 17.8828 699.057 17.7917 699.438 17.6094C699.818 17.4271 700.138 17.1589 700.398 16.8047C700.664 16.4453 700.865 16.0052 701 15.4844C701.135 14.9583 701.203 14.3542 701.203 13.6719ZM711.531 7.625H713.031V15.3203C713.031 16.1745 712.841 16.8854 712.461 17.4531C712.081 18.0208 711.576 18.4479 710.945 18.7344C710.32 19.0156 709.641 19.1562 708.906 19.1562C708.135 19.1562 707.438 19.0156 706.812 18.7344C706.193 18.4479 705.701 18.0208 705.336 17.4531C704.977 16.8854 704.797 16.1745 704.797 15.3203V7.625H706.289V15.3203C706.289 15.9141 706.398 16.4036 706.617 16.7891C706.836 17.1745 707.141 17.4609 707.531 17.6484C707.927 17.8359 708.385 17.9297 708.906 17.9297C709.432 17.9297 709.891 17.8359 710.281 17.6484C710.677 17.4609 710.984 17.1745 711.203 16.7891C711.422 16.4036 711.531 15.9141 711.531 15.3203V7.625ZM717.016 7.625V19H715.508V7.625H717.016ZM725.82 16.125C725.82 15.8594 725.779 15.625 725.695 15.4219C725.617 15.2135 725.477 15.026 725.273 14.8594C725.076 14.6927 724.799 14.5339 724.445 14.3828C724.096 14.2318 723.654 14.0781 723.117 13.9219C722.555 13.7552 722.047 13.5703 721.594 13.3672C721.141 13.1589 720.753 12.9219 720.43 12.6562C720.107 12.3906 719.859 12.0859 719.688 11.7422C719.516 11.3984 719.43 11.0052 719.43 10.5625C719.43 10.1198 719.521 9.71094 719.703 9.33594C719.885 8.96094 720.146 8.63542 720.484 8.35938C720.828 8.07812 721.237 7.85938 721.711 7.70312C722.185 7.54688 722.714 7.46875 723.297 7.46875C724.151 7.46875 724.875 7.63281 725.469 7.96094C726.068 8.28385 726.523 8.70833 726.836 9.23438C727.148 9.75521 727.305 10.3125 727.305 10.9062H725.805C725.805 10.4792 725.714 10.1016 725.531 9.77344C725.349 9.4401 725.073 9.17969 724.703 8.99219C724.333 8.79948 723.865 8.70312 723.297 8.70312C722.76 8.70312 722.318 8.78385 721.969 8.94531C721.62 9.10677 721.359 9.32552 721.188 9.60156C721.021 9.8776 720.938 10.1927 720.938 10.5469C720.938 10.7865 720.987 11.0052 721.086 11.2031C721.19 11.3958 721.349 11.5755 721.562 11.7422C721.781 11.9089 722.057 12.0625 722.391 12.2031C722.729 12.3438 723.133 12.4792 723.602 12.6094C724.247 12.7917 724.805 12.9948 725.273 13.2188C725.742 13.4427 726.128 13.6953 726.43 13.9766C726.737 14.2526 726.964 14.5677 727.109 14.9219C727.26 15.2708 727.336 15.6667 727.336 16.1094C727.336 16.5729 727.242 16.9922 727.055 17.3672C726.867 17.7422 726.599 18.0625 726.25 18.3281C725.901 18.5938 725.482 18.7995 724.992 18.9453C724.508 19.0859 723.966 19.1562 723.367 19.1562C722.841 19.1562 722.323 19.0833 721.812 18.9375C721.307 18.7917 720.846 18.5729 720.43 18.2812C720.018 17.9896 719.688 17.6302 719.438 17.2031C719.193 16.7708 719.07 16.2708 719.07 15.7031H720.57C720.57 16.0938 720.646 16.4297 720.797 16.7109C720.948 16.987 721.154 17.2161 721.414 17.3984C721.68 17.5807 721.979 17.7161 722.312 17.8047C722.651 17.888 723.003 17.9297 723.367 17.9297C723.893 17.9297 724.339 17.8568 724.703 17.7109C725.068 17.5651 725.344 17.3568 725.531 17.0859C725.724 16.8151 725.82 16.4948 725.82 16.125ZM733.469 8.63281L729.703 19H728.164L732.5 7.625H733.492L733.469 8.63281ZM736.625 19L732.852 8.63281L732.828 7.625H733.82L738.172 19H736.625ZM736.43 14.7891V16.0234H730.039V14.7891H736.43ZM739.695 7.625H743.461C744.315 7.625 745.036 7.75521 745.625 8.01562C746.219 8.27604 746.669 8.66146 746.977 9.17188C747.289 9.67708 747.445 10.2995 747.445 11.0391C747.445 11.5599 747.339 12.0365 747.125 12.4688C746.917 12.8958 746.615 13.2604 746.219 13.5625C745.828 13.8594 745.359 14.0807 744.812 14.2266L744.391 14.3906H740.852L740.836 13.1641H743.508C744.049 13.1641 744.5 13.0703 744.859 12.8828C745.219 12.6901 745.49 12.4323 745.672 12.1094C745.854 11.7865 745.945 11.4297 745.945 11.0391C745.945 10.6016 745.859 10.2188 745.688 9.89062C745.516 9.5625 745.245 9.3099 744.875 9.13281C744.51 8.95052 744.039 8.85938 743.461 8.85938H741.203V19H739.695V7.625ZM746.344 19L743.578 13.8438L745.148 13.8359L747.953 18.9062V19H746.344Z" fill="white"/>
<path d="M16.5156 16.5391H13.4766V15.3125H16.5156C17.1042 15.3125 17.5807 15.2188 17.9453 15.0312C18.3099 14.8438 18.5755 14.5833 18.7422 14.25C18.9141 13.9167 19 13.5365 19 13.1094C19 12.7188 18.9141 12.3516 18.7422 12.0078C18.5755 11.6641 18.3099 11.388 17.9453 11.1797C17.5807 10.9661 17.1042 10.8594 16.5156 10.8594H13.8281V21H12.3203V9.625H16.5156C17.375 9.625 18.1016 9.77344 18.6953 10.0703C19.2891 10.3672 19.7396 10.7786 20.0469 11.3047C20.3542 11.8255 20.5078 12.4219 20.5078 13.0938C20.5078 13.8229 20.3542 14.4453 20.0469 14.9609C19.7396 15.4766 19.2891 15.8698 18.6953 16.1406C18.1016 16.4062 17.375 16.5391 16.5156 16.5391ZM25.5938 21.1562C25.0052 21.1562 24.4714 21.0573 23.9922 20.8594C23.5182 20.6562 23.1094 20.3724 22.7656 20.0078C22.4271 19.6432 22.1667 19.2109 21.9844 18.7109C21.8021 18.2109 21.7109 17.6641 21.7109 17.0703V16.7422C21.7109 16.0547 21.8125 15.4427 22.0156 14.9062C22.2188 14.3646 22.4948 13.9062 22.8438 13.5312C23.1927 13.1562 23.5885 12.8724 24.0312 12.6797C24.474 12.487 24.9323 12.3906 25.4062 12.3906C26.0104 12.3906 26.5312 12.4948 26.9688 12.7031C27.4115 12.9115 27.7734 13.2031 28.0547 13.5781C28.3359 13.9479 28.5443 14.3854 28.6797 14.8906C28.8151 15.3906 28.8828 15.9375 28.8828 16.5312V17.1797H22.5703V16H27.4375V15.8906C27.4167 15.5156 27.3385 15.151 27.2031 14.7969C27.0729 14.4427 26.8646 14.151 26.5781 13.9219C26.2917 13.6927 25.901 13.5781 25.4062 13.5781C25.0781 13.5781 24.776 13.6484 24.5 13.7891C24.224 13.9245 23.987 14.1276 23.7891 14.3984C23.5911 14.6693 23.4375 15 23.3281 15.3906C23.2188 15.7812 23.1641 16.2318 23.1641 16.7422V17.0703C23.1641 17.4714 23.2188 17.849 23.3281 18.2031C23.4427 18.5521 23.6068 18.8594 23.8203 19.125C24.0391 19.3906 24.3021 19.599 24.6094 19.75C24.9219 19.901 25.276 19.9766 25.6719 19.9766C26.1823 19.9766 26.6146 19.8724 26.9688 19.6641C27.3229 19.4557 27.6328 19.1771 27.8984 18.8281L28.7734 19.5234C28.5911 19.7995 28.3594 20.0625 28.0781 20.3125C27.7969 20.5625 27.4505 20.7656 27.0391 20.9219C26.6328 21.0781 26.151 21.1562 25.5938 21.1562ZM35.4922 18.7578C35.4922 18.5495 35.4453 18.3568 35.3516 18.1797C35.263 17.9974 35.0781 17.8333 34.7969 17.6875C34.5208 17.5365 34.1042 17.4062 33.5469 17.2969C33.0781 17.1979 32.6536 17.0807 32.2734 16.9453C31.8984 16.8099 31.5781 16.6458 31.3125 16.4531C31.0521 16.2604 30.8516 16.0339 30.7109 15.7734C30.5703 15.513 30.5 15.2083 30.5 14.8594C30.5 14.526 30.5729 14.2109 30.7188 13.9141C30.8698 13.6172 31.0807 13.3542 31.3516 13.125C31.6276 12.8958 31.9583 12.7161 32.3438 12.5859C32.7292 12.4557 33.1589 12.3906 33.6328 12.3906C34.3099 12.3906 34.888 12.5104 35.3672 12.75C35.8464 12.9896 36.2135 13.3099 36.4688 13.7109C36.724 14.1068 36.8516 14.5469 36.8516 15.0312H35.4062C35.4062 14.7969 35.3359 14.5703 35.1953 14.3516C35.0599 14.1276 34.8594 13.9427 34.5938 13.7969C34.3333 13.651 34.013 13.5781 33.6328 13.5781C33.2318 13.5781 32.9062 13.6406 32.6562 13.7656C32.4115 13.8854 32.2318 14.0391 32.1172 14.2266C32.0078 14.4141 31.9531 14.612 31.9531 14.8203C31.9531 14.9766 31.9792 15.1172 32.0312 15.2422C32.0885 15.362 32.1875 15.474 32.3281 15.5781C32.4688 15.6771 32.6667 15.7708 32.9219 15.8594C33.1771 15.9479 33.5026 16.0365 33.8984 16.125C34.5911 16.2812 35.1615 16.4688 35.6094 16.6875C36.0573 16.9062 36.3906 17.1745 36.6094 17.4922C36.8281 17.8099 36.9375 18.1953 36.9375 18.6484C36.9375 19.0182 36.8594 19.3568 36.7031 19.6641C36.5521 19.9714 36.3307 20.237 36.0391 20.4609C35.7526 20.6797 35.4089 20.8516 35.0078 20.9766C34.612 21.0964 34.1667 21.1562 33.6719 21.1562C32.9271 21.1562 32.2969 21.0234 31.7812 20.7578C31.2656 20.4922 30.875 20.1484 30.6094 19.7266C30.3438 19.3047 30.2109 18.8594 30.2109 18.3906H31.6641C31.6849 18.7865 31.7995 19.1016 32.0078 19.3359C32.2161 19.5651 32.4714 19.7292 32.7734 19.8281C33.0755 19.9219 33.375 19.9688 33.6719 19.9688C34.0677 19.9688 34.3984 19.9167 34.6641 19.8125C34.9349 19.7083 35.1406 19.5651 35.2812 19.3828C35.4219 19.2005 35.4922 18.9922 35.4922 18.7578ZM44.1562 24.25V14.1719L44.2812 12.5469H45.6094V24.25H44.1562ZM38.4766 16.8672V16.7031C38.4766 16.0573 38.5521 15.4714 38.7031 14.9453C38.8542 14.4141 39.0755 13.9583 39.3672 13.5781C39.6589 13.1979 40.0104 12.9062 40.4219 12.7031C40.8385 12.4948 41.3125 12.3906 41.8438 12.3906C42.375 12.3906 42.8411 12.4844 43.2422 12.6719C43.6484 12.8542 43.9922 13.1224 44.2734 13.4766C44.5599 13.8255 44.7865 14.2474 44.9531 14.7422C45.1198 15.237 45.2344 15.7969 45.2969 16.4219V17.1406C45.2396 17.7604 45.1276 18.3177 44.9609 18.8125C44.7943 19.3073 44.5677 19.7292 44.2812 20.0781C44 20.4271 43.6536 20.6953 43.2422 20.8828C42.8359 21.0651 42.3646 21.1562 41.8281 21.1562C41.3073 21.1562 40.8385 21.0495 40.4219 20.8359C40.0104 20.6224 39.6589 20.3229 39.3672 19.9375C39.0807 19.5521 38.8594 19.099 38.7031 18.5781C38.5521 18.0521 38.4766 17.4818 38.4766 16.8672ZM39.9297 16.7031V16.8672C39.9297 17.2891 39.974 17.6875 40.0625 18.0625C40.151 18.4323 40.2865 18.7604 40.4688 19.0469C40.6562 19.3333 40.8906 19.5599 41.1719 19.7266C41.4583 19.888 41.7969 19.9688 42.1875 19.9688C42.6667 19.9688 43.0651 19.8646 43.3828 19.6562C43.7057 19.4479 43.9635 19.1745 44.1562 18.8359C44.349 18.4922 44.4974 18.125 44.6016 17.7344V15.8516C44.5443 15.5651 44.4531 15.2865 44.3281 15.0156C44.2083 14.7448 44.0521 14.5026 43.8594 14.2891C43.6667 14.0703 43.4323 13.8984 43.1562 13.7734C42.8854 13.6432 42.5677 13.5781 42.2031 13.5781C41.8073 13.5781 41.4661 13.6615 41.1797 13.8281C40.8932 13.9948 40.6562 14.224 40.4688 14.5156C40.2865 14.8021 40.151 15.1328 40.0625 15.5078C39.974 15.8828 39.9297 16.2812 39.9297 16.7031ZM53.1016 19.0469V12.5469H54.5547V21H53.1719L53.1016 19.0469ZM53.375 17.2656L53.9766 17.25C53.9766 17.8125 53.9167 18.3333 53.7969 18.8125C53.6823 19.2865 53.4948 19.6979 53.2344 20.0469C52.974 20.3958 52.6328 20.6693 52.2109 20.8672C51.7891 21.0599 51.276 21.1562 50.6719 21.1562C50.2604 21.1562 49.8828 21.0964 49.5391 20.9766C49.2005 20.8568 48.9089 20.6719 48.6641 20.4219C48.4193 20.1719 48.2292 19.8464 48.0938 19.4453C47.9635 19.0443 47.8984 18.5625 47.8984 18V12.5469H49.3438V18.0156C49.3438 18.3958 49.3854 18.7109 49.4688 18.9609C49.5573 19.2057 49.6745 19.401 49.8203 19.5469C49.9714 19.6875 50.138 19.7865 50.3203 19.8438C50.5078 19.901 50.7005 19.9297 50.8984 19.9297C51.513 19.9297 52 19.8125 52.3594 19.5781C52.7188 19.3385 52.9766 19.0182 53.1328 18.6172C53.2943 18.2109 53.375 17.7604 53.375 17.2656ZM58.3281 12.5469V21H56.875V12.5469H58.3281ZM56.7656 10.3047C56.7656 10.0703 56.8359 9.8724 56.9766 9.71094C57.1224 9.54948 57.3359 9.46875 57.6172 9.46875C57.8932 9.46875 58.1042 9.54948 58.25 9.71094C58.401 9.8724 58.4766 10.0703 58.4766 10.3047C58.4766 10.5286 58.401 10.7214 58.25 10.8828C58.1042 11.0391 57.8932 11.1172 57.6172 11.1172C57.3359 11.1172 57.1224 11.0391 56.9766 10.8828C56.8359 10.7214 56.7656 10.5286 56.7656 10.3047ZM65.5703 18.7578C65.5703 18.5495 65.5234 18.3568 65.4297 18.1797C65.3411 17.9974 65.1562 17.8333 64.875 17.6875C64.599 17.5365 64.1823 17.4062 63.625 17.2969C63.1562 17.1979 62.7318 17.0807 62.3516 16.9453C61.9766 16.8099 61.6562 16.6458 61.3906 16.4531C61.1302 16.2604 60.9297 16.0339 60.7891 15.7734C60.6484 15.513 60.5781 15.2083 60.5781 14.8594C60.5781 14.526 60.651 14.2109 60.7969 13.9141C60.9479 13.6172 61.1589 13.3542 61.4297 13.125C61.7057 12.8958 62.0365 12.7161 62.4219 12.5859C62.8073 12.4557 63.237 12.3906 63.7109 12.3906C64.388 12.3906 64.9661 12.5104 65.4453 12.75C65.9245 12.9896 66.2917 13.3099 66.5469 13.7109C66.8021 14.1068 66.9297 14.5469 66.9297 15.0312H65.4844C65.4844 14.7969 65.4141 14.5703 65.2734 14.3516C65.138 14.1276 64.9375 13.9427 64.6719 13.7969C64.4115 13.651 64.0911 13.5781 63.7109 13.5781C63.3099 13.5781 62.9844 13.6406 62.7344 13.7656C62.4896 13.8854 62.3099 14.0391 62.1953 14.2266C62.0859 14.4141 62.0312 14.612 62.0312 14.8203C62.0312 14.9766 62.0573 15.1172 62.1094 15.2422C62.1667 15.362 62.2656 15.474 62.4062 15.5781C62.5469 15.6771 62.7448 15.7708 63 15.8594C63.2552 15.9479 63.5807 16.0365 63.9766 16.125C64.6693 16.2812 65.2396 16.4688 65.6875 16.6875C66.1354 16.9062 66.4688 17.1745 66.6875 17.4922C66.9062 17.8099 67.0156 18.1953 67.0156 18.6484C67.0156 19.0182 66.9375 19.3568 66.7812 19.6641C66.6302 19.9714 66.4089 20.237 66.1172 20.4609C65.8307 20.6797 65.487 20.8516 65.0859 20.9766C64.6901 21.0964 64.2448 21.1562 63.75 21.1562C63.0052 21.1562 62.375 21.0234 61.8594 20.7578C61.3438 20.4922 60.9531 20.1484 60.6875 19.7266C60.4219 19.3047 60.2891 18.8594 60.2891 18.3906H61.7422C61.763 18.7865 61.8776 19.1016 62.0859 19.3359C62.2943 19.5651 62.5495 19.7292 62.8516 19.8281C63.1536 19.9219 63.4531 19.9688 63.75 19.9688C64.1458 19.9688 64.4766 19.9167 64.7422 19.8125C65.013 19.7083 65.2188 19.5651 65.3594 19.3828C65.5 19.2005 65.5703 18.9922 65.5703 18.7578ZM73.8984 19.5547V15.2031C73.8984 14.8698 73.8307 14.5807 73.6953 14.3359C73.5651 14.0859 73.3672 13.8932 73.1016 13.7578C72.8359 13.6224 72.5078 13.5547 72.1172 13.5547C71.7526 13.5547 71.4323 13.6172 71.1562 13.7422C70.8854 13.8672 70.6719 14.0312 70.5156 14.2344C70.3646 14.4375 70.2891 14.6562 70.2891 14.8906H68.8438C68.8438 14.5885 68.9219 14.2891 69.0781 13.9922C69.2344 13.6953 69.4583 13.4271 69.75 13.1875C70.0469 12.9427 70.401 12.75 70.8125 12.6094C71.2292 12.4635 71.6927 12.3906 72.2031 12.3906C72.8177 12.3906 73.3594 12.4948 73.8281 12.7031C74.3021 12.9115 74.6719 13.2266 74.9375 13.6484C75.2083 14.0651 75.3438 14.5885 75.3438 15.2188V19.1562C75.3438 19.4375 75.3672 19.737 75.4141 20.0547C75.4661 20.3724 75.5417 20.6458 75.6406 20.875V21H74.1328C74.0599 20.8333 74.0026 20.612 73.9609 20.3359C73.9193 20.0547 73.8984 19.7943 73.8984 19.5547ZM74.1484 15.875L74.1641 16.8906H72.7031C72.2917 16.8906 71.9245 16.9245 71.6016 16.9922C71.2786 17.0547 71.0078 17.151 70.7891 17.2812C70.5703 17.4115 70.4036 17.5755 70.2891 17.7734C70.1745 17.9661 70.1172 18.1927 70.1172 18.4531C70.1172 18.7188 70.1771 18.9609 70.2969 19.1797C70.4167 19.3984 70.5964 19.5729 70.8359 19.7031C71.0807 19.8281 71.3802 19.8906 71.7344 19.8906C72.1771 19.8906 72.5677 19.7969 72.9062 19.6094C73.2448 19.4219 73.513 19.1927 73.7109 18.9219C73.9141 18.651 74.0234 18.388 74.0391 18.1328L74.6562 18.8281C74.6198 19.0469 74.5208 19.2891 74.3594 19.5547C74.1979 19.8203 73.9818 20.0755 73.7109 20.3203C73.4453 20.5599 73.1276 20.7604 72.7578 20.9219C72.3932 21.0781 71.9818 21.1562 71.5234 21.1562C70.9505 21.1562 70.4479 21.0443 70.0156 20.8203C69.5885 20.5964 69.2552 20.2969 69.0156 19.9219C68.7812 19.5417 68.6641 19.1172 68.6641 18.6484C68.6641 18.1953 68.7526 17.7969 68.9297 17.4531C69.1068 17.1042 69.362 16.8151 69.6953 16.5859C70.0286 16.3516 70.4297 16.1745 70.8984 16.0547C71.3672 15.9349 71.8906 15.875 72.4688 15.875H74.1484ZM79.0625 13.875V21H77.6172V12.5469H79.0234L79.0625 13.875ZM81.7031 12.5L81.6953 13.8438C81.5755 13.8177 81.4609 13.8021 81.3516 13.7969C81.2474 13.7865 81.1276 13.7812 80.9922 13.7812C80.6589 13.7812 80.3646 13.8333 80.1094 13.9375C79.8542 14.0417 79.638 14.1875 79.4609 14.375C79.2839 14.5625 79.1432 14.7865 79.0391 15.0469C78.9401 15.3021 78.875 15.5833 78.8438 15.8906L78.4375 16.125C78.4375 15.6146 78.487 15.1354 78.5859 14.6875C78.6901 14.2396 78.849 13.8438 79.0625 13.5C79.276 13.151 79.5469 12.8802 79.875 12.6875C80.2083 12.4896 80.6042 12.3906 81.0625 12.3906C81.1667 12.3906 81.2865 12.4036 81.4219 12.4297C81.5573 12.4505 81.651 12.474 81.7031 12.5ZM88.4531 14.1719V24.25H87V12.5469H88.3281L88.4531 14.1719ZM94.1484 16.7031V16.8672C94.1484 17.4818 94.0755 18.0521 93.9297 18.5781C93.7839 19.099 93.5703 19.5521 93.2891 19.9375C93.013 20.3229 92.6719 20.6224 92.2656 20.8359C91.8594 21.0495 91.3932 21.1562 90.8672 21.1562C90.3307 21.1562 89.8568 21.0677 89.4453 20.8906C89.0339 20.7135 88.6849 20.4557 88.3984 20.1172C88.112 19.7786 87.8828 19.3724 87.7109 18.8984C87.5443 18.4245 87.4297 17.8906 87.3672 17.2969V16.4219C87.4297 15.7969 87.5469 15.237 87.7188 14.7422C87.8906 14.2474 88.1172 13.8255 88.3984 13.4766C88.6849 13.1224 89.0312 12.8542 89.4375 12.6719C89.8438 12.4844 90.3125 12.3906 90.8438 12.3906C91.375 12.3906 91.8464 12.4948 92.2578 12.7031C92.6693 12.9062 93.0156 13.1979 93.2969 13.5781C93.5781 13.9583 93.7891 14.4141 93.9297 14.9453C94.0755 15.4714 94.1484 16.0573 94.1484 16.7031ZM92.6953 16.8672V16.7031C92.6953 16.2812 92.651 15.8854 92.5625 15.5156C92.474 15.1406 92.3359 14.8125 92.1484 14.5312C91.9661 14.2448 91.7318 14.0208 91.4453 13.8594C91.1589 13.6927 90.8177 13.6094 90.4219 13.6094C90.0573 13.6094 89.7396 13.6719 89.4688 13.7969C89.2031 13.9219 88.9766 14.0911 88.7891 14.3047C88.6016 14.513 88.4479 14.7526 88.3281 15.0234C88.2135 15.2891 88.1276 15.5651 88.0703 15.8516V17.875C88.1745 18.2396 88.3203 18.5833 88.5078 18.9062C88.6953 19.224 88.9453 19.4818 89.2578 19.6797C89.5703 19.8724 89.9635 19.9688 90.4375 19.9688C90.8281 19.9688 91.1641 19.888 91.4453 19.7266C91.7318 19.5599 91.9661 19.3333 92.1484 19.0469C92.3359 18.7604 92.474 18.4323 92.5625 18.0625C92.651 17.6875 92.6953 17.2891 92.6953 16.8672ZM95.6094 16.8672V16.6875C95.6094 16.0781 95.6979 15.513 95.875 14.9922C96.0521 14.4661 96.3073 14.0104 96.6406 13.625C96.974 13.2344 97.3776 12.9323 97.8516 12.7188C98.3255 12.5 98.8568 12.3906 99.4453 12.3906C100.039 12.3906 100.573 12.5 101.047 12.7188C101.526 12.9323 101.932 13.2344 102.266 13.625C102.604 14.0104 102.862 14.4661 103.039 14.9922C103.216 15.513 103.305 16.0781 103.305 16.6875V16.8672C103.305 17.4766 103.216 18.0417 103.039 18.5625C102.862 19.0833 102.604 19.5391 102.266 19.9297C101.932 20.3151 101.529 20.6172 101.055 20.8359C100.586 21.0495 100.055 21.1562 99.4609 21.1562C98.8672 21.1562 98.3333 21.0495 97.8594 20.8359C97.3854 20.6172 96.9792 20.3151 96.6406 19.9297C96.3073 19.5391 96.0521 19.0833 95.875 18.5625C95.6979 18.0417 95.6094 17.4766 95.6094 16.8672ZM97.0547 16.6875V16.8672C97.0547 17.2891 97.1042 17.6875 97.2031 18.0625C97.3021 18.4323 97.4505 18.7604 97.6484 19.0469C97.8516 19.3333 98.1042 19.5599 98.4062 19.7266C98.7083 19.888 99.0599 19.9688 99.4609 19.9688C99.8568 19.9688 100.203 19.888 100.5 19.7266C100.802 19.5599 101.052 19.3333 101.25 19.0469C101.448 18.7604 101.596 18.4323 101.695 18.0625C101.799 17.6875 101.852 17.2891 101.852 16.8672V16.6875C101.852 16.2708 101.799 15.8776 101.695 15.5078C101.596 15.1328 101.445 14.8021 101.242 14.5156C101.044 14.224 100.794 13.9948 100.492 13.8281C100.195 13.6615 99.8464 13.5781 99.4453 13.5781C99.0495 13.5781 98.7005 13.6615 98.3984 13.8281C98.1016 13.9948 97.8516 14.224 97.6484 14.5156C97.4505 14.8021 97.3021 15.1328 97.2031 15.5078C97.1042 15.8776 97.0547 16.2708 97.0547 16.6875ZM106.562 13.875V21H105.117V12.5469H106.523L106.562 13.875ZM109.203 12.5L109.195 13.8438C109.076 13.8177 108.961 13.8021 108.852 13.7969C108.747 13.7865 108.628 13.7812 108.492 13.7812C108.159 13.7812 107.865 13.8333 107.609 13.9375C107.354 14.0417 107.138 14.1875 106.961 14.375C106.784 14.5625 106.643 14.7865 106.539 15.0469C106.44 15.3021 106.375 15.5833 106.344 15.8906L105.938 16.125C105.938 15.6146 105.987 15.1354 106.086 14.6875C106.19 14.2396 106.349 13.8438 106.562 13.5C106.776 13.151 107.047 12.8802 107.375 12.6875C107.708 12.4896 108.104 12.3906 108.562 12.3906C108.667 12.3906 108.786 12.4036 108.922 12.4297C109.057 12.4505 109.151 12.474 109.203 12.5ZM109.594 20.2344C109.594 19.9896 109.669 19.7839 109.82 19.6172C109.977 19.4453 110.201 19.3594 110.492 19.3594C110.784 19.3594 111.005 19.4453 111.156 19.6172C111.312 19.7839 111.391 19.9896 111.391 20.2344C111.391 20.474 111.312 20.6771 111.156 20.8438C111.005 21.0104 110.784 21.0938 110.492 21.0938C110.201 21.0938 109.977 21.0104 109.82 20.8438C109.669 20.6771 109.594 20.474 109.594 20.2344ZM113.812 20.2344C113.812 19.9896 113.888 19.7839 114.039 19.6172C114.195 19.4453 114.419 19.3594 114.711 19.3594C115.003 19.3594 115.224 19.4453 115.375 19.6172C115.531 19.7839 115.609 19.9896 115.609 20.2344C115.609 20.474 115.531 20.6771 115.375 20.8438C115.224 21.0104 115.003 21.0938 114.711 21.0938C114.419 21.0938 114.195 21.0104 114.039 20.8438C113.888 20.6771 113.812 20.474 113.812 20.2344ZM118.031 20.2344C118.031 19.9896 118.107 19.7839 118.258 19.6172C118.414 19.4453 118.638 19.3594 118.93 19.3594C119.221 19.3594 119.443 19.4453 119.594 19.6172C119.75 19.7839 119.828 19.9896 119.828 20.2344C119.828 20.474 119.75 20.6771 119.594 20.8438C119.443 21.0104 119.221 21.0938 118.93 21.0938C118.638 21.0938 118.414 21.0104 118.258 20.8438C118.107 20.6771 118.031 20.474 118.031 20.2344Z" fill="#F2F2F2"/>
<path fill-rule="evenodd" clip-rule="evenodd" d="M644.568 17.8321C647.09 18.7692 649.895 17.4838 650.832 14.9611C651.769 12.4385 650.484 9.63378 647.961 8.69671C645.438 7.75964 642.634 9.04503 641.697 11.5677C640.76 14.0904 642.045 16.8951 644.568 17.8321ZM645.133 16.3096C646.815 16.9343 648.685 16.0773 649.309 14.3956C649.934 12.7138 649.077 10.844 647.395 10.2193C645.714 9.59458 643.844 10.4515 643.219 12.1333C642.594 13.8151 643.451 15.6848 645.133 16.3096Z" fill="white"/>
<rect x="650.664" y="13.4137" width="5.56875" height="2.08828" transform="rotate(20.3779 650.664 13.4137)" fill="white"/>
</svg>
