<svg width="25" height="25" viewBox="0 0 25 25" fill="none" xmlns="http://www.w3.org/2000/svg">
<path fill-rule="evenodd" clip-rule="evenodd" d="M11.7143 0C11.162 0 10.7143 0.447716 10.7143 1V3.75005C9.52722 3.99103 8.42571 4.46749 7.46061 5.12855L5.73509 3.13677C5.37347 2.71935 4.74192 2.67411 4.32449 3.03573L3.13677 4.06467C2.71935 4.4263 2.67411 5.05784 3.03573 5.47527L4.96717 7.70475C4.38974 8.60994 3.971 9.62619 3.75012 10.7143H1C0.447715 10.7143 0 11.162 0 11.7143V13.2857C0 13.838 0.447716 14.2857 1 14.2857H3.75013C3.95665 15.3031 4.33618 16.2577 4.85668 17.1175L3.03583 19.2193C2.67421 19.6367 2.71945 20.2683 3.13687 20.6299L4.32459 21.6588C4.74202 22.0205 5.37357 21.9752 5.73519 21.5578L7.2961 19.756C8.29978 20.4771 9.45921 20.9952 10.7142 21.2499V24C10.7142 24.5523 11.1619 25 11.7142 25H13.2857C13.8379 25 14.2857 24.5523 14.2857 24V21.25C15.7061 20.9617 17.0041 20.3362 18.0925 19.4606L19.9093 21.5578C20.2709 21.9752 20.9025 22.0205 21.3199 21.6588L22.5076 20.6299C22.9251 20.2683 22.9703 19.6367 22.6087 19.2193L20.3983 16.6678C20.7889 15.9291 21.0789 15.129 21.2501 14.2857H24C24.5523 14.2857 25 13.838 25 13.2857V11.7143C25 11.162 24.5523 10.7143 24 10.7143H21.2501C20.9998 9.48155 20.4956 8.34105 19.7944 7.34976L21.4183 5.47527C21.78 5.05784 21.7347 4.4263 21.3173 4.06467L20.1296 3.03573C19.7122 2.67411 19.0806 2.71935 18.719 3.13677L17.1905 4.90118C16.3119 4.35772 15.332 3.96238 14.2857 3.75V1C14.2857 0.447715 13.838 0 13.2857 0H11.7143ZM12.5 17.8571C15.4586 17.8571 17.8571 15.4587 17.8571 12.5C17.8571 9.54133 15.4586 7.14286 12.5 7.14286C9.5413 7.14286 7.14282 9.54133 7.14282 12.5C7.14282 15.4587 9.5413 17.8571 12.5 17.8571Z" fill="#4C4646"/>
</svg>
