<svg width="25" height="25" viewBox="0 0 25 25" fill="none" xmlns="http://www.w3.org/2000/svg">
<path fill-rule="evenodd" clip-rule="evenodd" d="M12.5 25C19.4036 25 25 19.4036 25 12.5C25 5.59644 19.4036 0 12.5 0C5.59644 0 0 5.59644 0 12.5C0 19.4036 5.59644 25 12.5 25ZM12.8281 6.76344V5.08594H11.5859V6.73231C11.0482 6.77957 10.5612 6.90526 10.125 7.10938C9.5625 7.36979 9.11979 7.73958 8.79688 8.21875C8.47917 8.69792 8.32031 9.26042 8.32031 9.90625C8.32031 10.6146 8.46875 11.1901 8.76562 11.6328C9.06771 12.0755 9.48177 12.4453 10.0078 12.7422C10.5391 13.0391 11.151 13.3281 11.8438 13.6094C12.1719 13.75 12.4349 13.8906 12.6328 14.0312C12.8307 14.1719 12.974 14.3359 13.0625 14.5234C13.151 14.7109 13.1953 14.9479 13.1953 15.2344C13.1953 15.4531 13.1536 15.6536 13.0703 15.8359C12.9922 16.013 12.8698 16.1562 12.7031 16.2656C12.5365 16.3698 12.3203 16.4219 12.0547 16.4219C11.8568 16.4219 11.6667 16.3932 11.4844 16.3359C11.3021 16.2734 11.138 16.1745 10.9922 16.0391C10.8516 15.8984 10.7396 15.7109 10.6562 15.4766C10.5729 15.2422 10.5312 14.9505 10.5312 14.6016H7.89844C7.89844 15.3151 8.01823 15.9167 8.25781 16.4062C8.4974 16.8958 8.81771 17.2891 9.21875 17.5859C9.625 17.8776 10.0729 18.0885 10.5625 18.2188C10.8507 18.2946 11.1397 18.3483 11.4297 18.38V19.9531H12.6719V18.3834C13.1675 18.3324 13.6181 18.2176 14.0234 18.0391C14.5911 17.7891 15.0339 17.4271 15.3516 16.9531C15.6693 16.474 15.8281 15.8958 15.8281 15.2188C15.8281 14.5156 15.6745 13.9427 15.3672 13.5C15.0651 13.0521 14.6484 12.6745 14.1172 12.3672C13.5859 12.0599 12.9818 11.763 12.3047 11.4766C11.9609 11.3203 11.6901 11.1693 11.4922 11.0234C11.2943 10.8724 11.1536 10.7109 11.0703 10.5391C10.9922 10.362 10.9531 10.1562 10.9531 9.92188C10.9531 9.69792 10.9896 9.49479 11.0625 9.3125C11.1354 9.13021 11.2526 8.98438 11.4141 8.875C11.5755 8.76042 11.7865 8.70312 12.0469 8.70312C12.2188 8.70312 12.3776 8.73698 12.5234 8.80469C12.6693 8.86719 12.7969 8.96615 12.9062 9.10156C13.0156 9.23698 13.099 9.41146 13.1562 9.625C13.2188 9.83854 13.25 10.0938 13.25 10.3906H15.8828C15.8828 9.8125 15.7917 9.29688 15.6094 8.84375C15.4271 8.38542 15.1667 8 14.8281 7.6875C14.4896 7.36979 14.0885 7.1276 13.625 6.96094C13.3739 6.87065 13.1083 6.80482 12.8281 6.76344Z" fill="#4C4646"/>
</svg>
