<svg width="25" height="25" viewBox="0 0 25 25" fill="none" xmlns="http://www.w3.org/2000/svg">
<path d="M6.11881 11.3638C6.27178 10.4725 2.29455 9.3584 0 9.3584V21.6135H2.67698C3.13589 21.6135 4.07921 20.7964 4.20668 20.4994C4.97153 17.3799 5.96584 12.255 6.11881 11.3638Z" fill="white"/>
<path d="M5.16275 20.4994L7.26609 12.9235C7.32983 12.7007 7.43218 12.0322 7.64851 12.0322C8.22215 12.0322 8.22215 12.0322 9.36943 12.4779C10.4728 12.9065 10.8991 13.1463 11.8552 13.592C12.4288 13.8593 13.5761 14.0376 14.5322 14.2604C15.4882 14.4832 16.4443 14.9289 17.2092 16.043C17.8064 16.9129 17.4004 17.6027 17.2092 18.0483C17.0179 18.494 15.8707 18.494 14.5322 18.494C13.1937 18.494 12.2376 18.2712 11.8552 18.494C11.4728 18.7168 12.4288 19.3853 13.5761 19.6081C14.7234 19.8309 17.0179 19.6081 18.3564 18.9396C19.6949 18.2712 20.2686 17.6027 21.9895 16.9342C22.8965 16.5819 24.0928 16.7114 24.6665 17.6027C25.2401 18.494 25.0489 19.9052 24.284 20.4994C23.7104 20.945 22.5631 21.6135 21.6071 22.2819C20.651 22.9504 17.4004 24.7329 15.297 24.9557C13.1937 25.1786 10.8991 24.5101 10.1343 24.0645C9.36943 23.6188 5.9276 22.0591 5.35396 21.6135C4.89505 21.2569 5.03527 20.7222 5.16275 20.4994Z" fill="white"/>
<rect x="11.8552" width="10.7079" height="11.5866" fill="white"/>
</svg>
