<svg width="204" height="28" viewBox="0 0 204 28" fill="none" xmlns="http://www.w3.org/2000/svg">
<rect width="204" height="28" fill="#FFBE00"/>
<path d="M54.0703 9.625V21H52.5547L46.8281 12.2266V21H45.3203V9.625H46.8281L52.5781 18.4219V9.625H54.0703ZM65.5 14.9531V15.6719C65.5 16.526 65.3932 17.2917 65.1797 17.9688C64.9661 18.6458 64.6589 19.2214 64.2578 19.6953C63.8568 20.1693 63.375 20.5312 62.8125 20.7812C62.2552 21.0312 61.6302 21.1562 60.9375 21.1562C60.2656 21.1562 59.6484 21.0312 59.0859 20.7812C58.5286 20.5312 58.0443 20.1693 57.6328 19.6953C57.2266 19.2214 56.9115 18.6458 56.6875 17.9688C56.4635 17.2917 56.3516 16.526 56.3516 15.6719V14.9531C56.3516 14.099 56.4609 13.3359 56.6797 12.6641C56.9036 11.987 57.2188 11.4115 57.625 10.9375C58.0312 10.4583 58.513 10.0938 59.0703 9.84375C59.6328 9.59375 60.25 9.46875 60.9219 9.46875C61.6146 9.46875 62.2396 9.59375 62.7969 9.84375C63.3594 10.0938 63.8411 10.4583 64.2422 10.9375C64.6484 11.4115 64.9583 11.987 65.1719 12.6641C65.3906 13.3359 65.5 14.099 65.5 14.9531ZM64.0078 15.6719V14.9375C64.0078 14.2604 63.9375 13.6615 63.7969 13.1406C63.6615 12.6198 63.4609 12.1823 63.1953 11.8281C62.9297 11.474 62.6042 11.2057 62.2188 11.0234C61.8385 10.8411 61.4062 10.75 60.9219 10.75C60.4531 10.75 60.0286 10.8411 59.6484 11.0234C59.2734 11.2057 58.9505 11.474 58.6797 11.8281C58.4141 12.1823 58.2083 12.6198 58.0625 13.1406C57.9167 13.6615 57.8438 14.2604 57.8438 14.9375V15.6719C57.8438 16.3542 57.9167 16.9583 58.0625 17.4844C58.2083 18.0052 58.4167 18.4453 58.6875 18.8047C58.9635 19.1589 59.2891 19.4271 59.6641 19.6094C60.0443 19.7917 60.4688 19.8828 60.9375 19.8828C61.4271 19.8828 61.862 19.7917 62.2422 19.6094C62.6224 19.4271 62.9427 19.1589 63.2031 18.8047C63.4688 18.4453 63.6693 18.0052 63.8047 17.4844C63.9401 16.9583 64.0078 16.3542 64.0078 15.6719ZM71.2578 19.2734L74.6094 9.625H76.2422L72.0312 21H70.8672L71.2578 19.2734ZM68.125 9.625L71.4453 19.2734L71.8594 21H70.6953L66.4922 9.625H68.125ZM86.4219 14.9531V15.6719C86.4219 16.526 86.3151 17.2917 86.1016 17.9688C85.888 18.6458 85.5807 19.2214 85.1797 19.6953C84.7786 20.1693 84.2969 20.5312 83.7344 20.7812C83.1771 21.0312 82.5521 21.1562 81.8594 21.1562C81.1875 21.1562 80.5703 21.0312 80.0078 20.7812C79.4505 20.5312 78.9661 20.1693 78.5547 19.6953C78.1484 19.2214 77.8333 18.6458 77.6094 17.9688C77.3854 17.2917 77.2734 16.526 77.2734 15.6719V14.9531C77.2734 14.099 77.3828 13.3359 77.6016 12.6641C77.8255 11.987 78.1406 11.4115 78.5469 10.9375C78.9531 10.4583 79.4349 10.0938 79.9922 9.84375C80.5547 9.59375 81.1719 9.46875 81.8438 9.46875C82.5365 9.46875 83.1615 9.59375 83.7188 9.84375C84.2812 10.0938 84.763 10.4583 85.1641 10.9375C85.5703 11.4115 85.8802 11.987 86.0938 12.6641C86.3125 13.3359 86.4219 14.099 86.4219 14.9531ZM84.9297 15.6719V14.9375C84.9297 14.2604 84.8594 13.6615 84.7188 13.1406C84.5833 12.6198 84.3828 12.1823 84.1172 11.8281C83.8516 11.474 83.526 11.2057 83.1406 11.0234C82.7604 10.8411 82.3281 10.75 81.8438 10.75C81.375 10.75 80.9505 10.8411 80.5703 11.0234C80.1953 11.2057 79.8724 11.474 79.6016 11.8281C79.3359 12.1823 79.1302 12.6198 78.9844 13.1406C78.8385 13.6615 78.7656 14.2604 78.7656 14.9375V15.6719C78.7656 16.3542 78.8385 16.9583 78.9844 17.4844C79.1302 18.0052 79.3385 18.4453 79.6094 18.8047C79.8854 19.1589 80.2109 19.4271 80.5859 19.6094C80.9661 19.7917 81.3906 19.8828 81.8594 19.8828C82.349 19.8828 82.7839 19.7917 83.1641 19.6094C83.5443 19.4271 83.8646 19.1589 84.125 18.8047C84.3906 18.4453 84.5911 18.0052 84.7266 17.4844C84.862 16.9583 84.9297 16.3542 84.9297 15.6719ZM94.1562 9.625V21H92.6484V9.625H94.1562ZM98.9219 14.7422V15.9766H93.8281V14.7422H98.9219ZM99.6953 9.625V10.8594H93.8281V9.625H99.6953ZM110.25 14.9531V15.6719C110.25 16.526 110.143 17.2917 109.93 17.9688C109.716 18.6458 109.409 19.2214 109.008 19.6953C108.607 20.1693 108.125 20.5312 107.562 20.7812C107.005 21.0312 106.38 21.1562 105.688 21.1562C105.016 21.1562 104.398 21.0312 103.836 20.7812C103.279 20.5312 102.794 20.1693 102.383 19.6953C101.977 19.2214 101.661 18.6458 101.438 17.9688C101.214 17.2917 101.102 16.526 101.102 15.6719V14.9531C101.102 14.099 101.211 13.3359 101.43 12.6641C101.654 11.987 101.969 11.4115 102.375 10.9375C102.781 10.4583 103.263 10.0938 103.82 9.84375C104.383 9.59375 105 9.46875 105.672 9.46875C106.365 9.46875 106.99 9.59375 107.547 9.84375C108.109 10.0938 108.591 10.4583 108.992 10.9375C109.398 11.4115 109.708 11.987 109.922 12.6641C110.141 13.3359 110.25 14.099 110.25 14.9531ZM108.758 15.6719V14.9375C108.758 14.2604 108.688 13.6615 108.547 13.1406C108.411 12.6198 108.211 12.1823 107.945 11.8281C107.68 11.474 107.354 11.2057 106.969 11.0234C106.589 10.8411 106.156 10.75 105.672 10.75C105.203 10.75 104.779 10.8411 104.398 11.0234C104.023 11.2057 103.701 11.474 103.43 11.8281C103.164 12.1823 102.958 12.6198 102.812 13.1406C102.667 13.6615 102.594 14.2604 102.594 14.9375V15.6719C102.594 16.3542 102.667 16.9583 102.812 17.4844C102.958 18.0052 103.167 18.4453 103.438 18.8047C103.714 19.1589 104.039 19.4271 104.414 19.6094C104.794 19.7917 105.219 19.8828 105.688 19.8828C106.177 19.8828 106.612 19.7917 106.992 19.6094C107.372 19.4271 107.693 19.1589 107.953 18.8047C108.219 18.4453 108.419 18.0052 108.555 17.4844C108.69 16.9583 108.758 16.3542 108.758 15.6719ZM112.508 9.625H116.273C117.128 9.625 117.849 9.75521 118.438 10.0156C119.031 10.276 119.482 10.6615 119.789 11.1719C120.102 11.6771 120.258 12.2995 120.258 13.0391C120.258 13.5599 120.151 14.0365 119.938 14.4688C119.729 14.8958 119.427 15.2604 119.031 15.5625C118.641 15.8594 118.172 16.0807 117.625 16.2266L117.203 16.3906H113.664L113.648 15.1641H116.32C116.862 15.1641 117.312 15.0703 117.672 14.8828C118.031 14.6901 118.302 14.4323 118.484 14.1094C118.667 13.7865 118.758 13.4297 118.758 13.0391C118.758 12.6016 118.672 12.2188 118.5 11.8906C118.328 11.5625 118.057 11.3099 117.688 11.1328C117.323 10.9505 116.852 10.8594 116.273 10.8594H114.016V21H112.508V9.625ZM119.156 21L116.391 15.8438L117.961 15.8359L120.766 20.9062V21H119.156ZM131.117 9.625V21H129.602L123.875 12.2266V21H122.367V9.625H123.875L129.625 18.4219V9.625H131.117ZM141.016 19.7734V21H134.992V19.7734H141.016ZM135.297 9.625V21H133.789V9.625H135.297ZM140.219 14.5156V15.7422H134.992V14.5156H140.219ZM140.938 9.625V10.8594H134.992V9.625H140.938ZM149.75 17.3828H151.25C151.172 18.1016 150.966 18.7448 150.633 19.3125C150.299 19.8802 149.828 20.3307 149.219 20.6641C148.609 20.9922 147.849 21.1562 146.938 21.1562C146.271 21.1562 145.664 21.0312 145.117 20.7812C144.576 20.5312 144.109 20.1771 143.719 19.7188C143.328 19.2552 143.026 18.7005 142.812 18.0547C142.604 17.4036 142.5 16.6797 142.5 15.8828V14.75C142.5 13.9531 142.604 13.2318 142.812 12.5859C143.026 11.9349 143.331 11.3776 143.727 10.9141C144.128 10.4505 144.609 10.0938 145.172 9.84375C145.734 9.59375 146.367 9.46875 147.07 9.46875C147.93 9.46875 148.656 9.63021 149.25 9.95312C149.844 10.276 150.305 10.724 150.633 11.2969C150.966 11.8646 151.172 12.5234 151.25 13.2734H149.75C149.677 12.7422 149.542 12.2865 149.344 11.9062C149.146 11.5208 148.865 11.224 148.5 11.0156C148.135 10.8073 147.659 10.7031 147.07 10.7031C146.565 10.7031 146.12 10.7995 145.734 10.9922C145.354 11.1849 145.034 11.4583 144.773 11.8125C144.518 12.1667 144.326 12.5911 144.195 13.0859C144.065 13.5807 144 14.1302 144 14.7344V15.8828C144 16.4401 144.057 16.9635 144.172 17.4531C144.292 17.9427 144.471 18.3724 144.711 18.7422C144.951 19.112 145.255 19.4036 145.625 19.6172C145.995 19.8255 146.432 19.9297 146.938 19.9297C147.578 19.9297 148.089 19.8281 148.469 19.625C148.849 19.4219 149.135 19.1302 149.328 18.75C149.526 18.3698 149.667 17.9141 149.75 17.3828ZM160.531 19.7734V21H154.508V19.7734H160.531ZM154.812 9.625V21H153.305V9.625H154.812ZM159.734 14.5156V15.7422H154.508V14.5156H159.734ZM160.453 9.625V10.8594H154.508V9.625H160.453ZM165.477 21H163.102L163.117 19.7734H165.477C166.289 19.7734 166.966 19.6042 167.508 19.2656C168.049 18.9219 168.456 18.4427 168.727 17.8281C169.003 17.2083 169.141 16.4844 169.141 15.6562V14.9609C169.141 14.3099 169.062 13.7318 168.906 13.2266C168.75 12.7161 168.521 12.2865 168.219 11.9375C167.917 11.5833 167.547 11.3151 167.109 11.1328C166.677 10.9505 166.18 10.8594 165.617 10.8594H163.055V9.625H165.617C166.362 9.625 167.042 9.75 167.656 10C168.271 10.2448 168.799 10.6016 169.242 11.0703C169.69 11.5339 170.034 12.0964 170.273 12.7578C170.513 13.4141 170.633 14.1536 170.633 14.9766V15.6562C170.633 16.4792 170.513 17.2214 170.273 17.8828C170.034 18.5391 169.688 19.099 169.234 19.5625C168.786 20.026 168.245 20.3828 167.609 20.6328C166.979 20.8776 166.268 21 165.477 21ZM163.906 9.625V21H162.398V9.625H163.906ZM181.656 14.9531V15.6719C181.656 16.526 181.549 17.2917 181.336 17.9688C181.122 18.6458 180.815 19.2214 180.414 19.6953C180.013 20.1693 179.531 20.5312 178.969 20.7812C178.411 21.0312 177.786 21.1562 177.094 21.1562C176.422 21.1562 175.805 21.0312 175.242 20.7812C174.685 20.5312 174.201 20.1693 173.789 19.6953C173.383 19.2214 173.068 18.6458 172.844 17.9688C172.62 17.2917 172.508 16.526 172.508 15.6719V14.9531C172.508 14.099 172.617 13.3359 172.836 12.6641C173.06 11.987 173.375 11.4115 173.781 10.9375C174.188 10.4583 174.669 10.0938 175.227 9.84375C175.789 9.59375 176.406 9.46875 177.078 9.46875C177.771 9.46875 178.396 9.59375 178.953 9.84375C179.516 10.0938 179.997 10.4583 180.398 10.9375C180.805 11.4115 181.115 11.987 181.328 12.6641C181.547 13.3359 181.656 14.099 181.656 14.9531ZM180.164 15.6719V14.9375C180.164 14.2604 180.094 13.6615 179.953 13.1406C179.818 12.6198 179.617 12.1823 179.352 11.8281C179.086 11.474 178.76 11.2057 178.375 11.0234C177.995 10.8411 177.562 10.75 177.078 10.75C176.609 10.75 176.185 10.8411 175.805 11.0234C175.43 11.2057 175.107 11.474 174.836 11.8281C174.57 12.1823 174.365 12.6198 174.219 13.1406C174.073 13.6615 174 14.2604 174 14.9375V15.6719C174 16.3542 174.073 16.9583 174.219 17.4844C174.365 18.0052 174.573 18.4453 174.844 18.8047C175.12 19.1589 175.445 19.4271 175.82 19.6094C176.201 19.7917 176.625 19.8828 177.094 19.8828C177.583 19.8828 178.018 19.7917 178.398 19.6094C178.779 19.4271 179.099 19.1589 179.359 18.8047C179.625 18.4453 179.826 18.0052 179.961 17.4844C180.096 16.9583 180.164 16.3542 180.164 15.6719ZM183.914 9.625H187.68C188.534 9.625 189.255 9.75521 189.844 10.0156C190.438 10.276 190.888 10.6615 191.195 11.1719C191.508 11.6771 191.664 12.2995 191.664 13.0391C191.664 13.5599 191.557 14.0365 191.344 14.4688C191.135 14.8958 190.833 15.2604 190.438 15.5625C190.047 15.8594 189.578 16.0807 189.031 16.2266L188.609 16.3906H185.07L185.055 15.1641H187.727C188.268 15.1641 188.719 15.0703 189.078 14.8828C189.438 14.6901 189.708 14.4323 189.891 14.1094C190.073 13.7865 190.164 13.4297 190.164 13.0391C190.164 12.6016 190.078 12.2188 189.906 11.8906C189.734 11.5625 189.464 11.3099 189.094 11.1328C188.729 10.9505 188.258 10.8594 187.68 10.8594H185.422V21H183.914V9.625ZM190.562 21L187.797 15.8438L189.367 15.8359L192.172 20.9062V21H190.562Z" fill="#001470"/>
<circle cx="20" cy="14" r="9" fill="white"/>
<line x1="20" y1="8" x2="20" y2="20" stroke="#FFBE00" stroke-width="2"/>
<line x1="26" y1="14" x2="14" y2="14" stroke="#FFBE00" stroke-width="2"/>
</svg>
