<svg width="25" height="25" viewBox="0 0 25 25" fill="none" xmlns="http://www.w3.org/2000/svg">
<path fill-rule="evenodd" clip-rule="evenodd" d="M12.5 25C19.4036 25 25 19.4036 25 12.5C25 5.59644 19.4036 0 12.5 0C5.59644 0 0 5.59644 0 12.5C0 19.4036 5.59644 25 12.5 25ZM11.1875 14.6484H13.4297C13.4401 14.237 13.5 13.8958 13.6094 13.625C13.7188 13.349 13.9245 13.0781 14.2266 12.8125C14.5755 12.4896 14.8906 12.1875 15.1719 11.9062C15.4583 11.6198 15.6849 11.3125 15.8516 10.9844C16.0234 10.651 16.1094 10.2604 16.1094 9.8125C16.1094 9.14062 15.9635 8.57552 15.6719 8.11719C15.3802 7.65365 14.9609 7.30469 14.4141 7.07031C13.8672 6.83594 13.2135 6.71875 12.4531 6.71875C11.7656 6.71875 11.1432 6.83333 10.5859 7.0625C10.0339 7.28646 9.59115 7.64323 9.25781 8.13281C8.92969 8.61719 8.75781 9.2474 8.74219 10.0234H11.3906C11.401 9.72135 11.4557 9.47917 11.5547 9.29688C11.6536 9.10938 11.7812 8.97135 11.9375 8.88281C12.099 8.79427 12.2708 8.75 12.4531 8.75C12.6771 8.75 12.862 8.79427 13.0078 8.88281C13.1589 8.96615 13.2708 9.09375 13.3438 9.26562C13.4219 9.4375 13.4609 9.65885 13.4609 9.92969C13.4609 10.1484 13.4141 10.3542 13.3203 10.5469C13.2266 10.7396 13.0911 10.9297 12.9141 11.1172C12.737 11.3047 12.526 11.5 12.2812 11.7031C12.0052 11.9427 11.7865 12.2031 11.625 12.4844C11.4635 12.7656 11.349 13.0833 11.2812 13.4375C11.2188 13.7865 11.1875 14.1901 11.1875 14.6484ZM11.2734 16.0859C11.0026 16.3359 10.8672 16.6484 10.8672 17.0234C10.8672 17.3984 11.0026 17.7135 11.2734 17.9688C11.5443 18.2188 11.8958 18.3438 12.3281 18.3438C12.7604 18.3438 13.112 18.2188 13.3828 17.9688C13.6536 17.7135 13.7891 17.3984 13.7891 17.0234C13.7891 16.6484 13.6536 16.3359 13.3828 16.0859C13.112 15.8307 12.7604 15.7031 12.3281 15.7031C11.8958 15.7031 11.5443 15.8307 11.2734 16.0859Z" fill="#4C4646"/>
</svg>
