<svg width="33" height="33" viewBox="0 0 33 33" fill="none" xmlns="http://www.w3.org/2000/svg">
<g filter="url(#filter0_d_174_333)">
<path fill-rule="evenodd" clip-rule="evenodd" d="M16.5 25C23.4036 25 29 19.4036 29 12.5C29 5.59644 23.4036 0 16.5 0C9.59644 0 4 5.59644 4 12.5C4 19.4036 9.59644 25 16.5 25ZM15.1875 14.6484H17.4297C17.4401 14.237 17.5 13.8958 17.6094 13.625C17.7188 13.349 17.9245 13.0781 18.2266 12.8125C18.5755 12.4896 18.8906 12.1875 19.1719 11.9062C19.4583 11.6198 19.6849 11.3125 19.8516 10.9844C20.0234 10.651 20.1094 10.2604 20.1094 9.8125C20.1094 9.14062 19.9635 8.57552 19.6719 8.11719C19.3802 7.65365 18.9609 7.30469 18.4141 7.07031C17.8672 6.83594 17.2135 6.71875 16.4531 6.71875C15.7656 6.71875 15.1432 6.83333 14.5859 7.0625C14.0339 7.28646 13.5911 7.64323 13.2578 8.13281C12.9297 8.61719 12.7578 9.2474 12.7422 10.0234H15.3906C15.401 9.72135 15.4557 9.47917 15.5547 9.29688C15.6536 9.10938 15.7812 8.97135 15.9375 8.88281C16.099 8.79427 16.2708 8.75 16.4531 8.75C16.6771 8.75 16.862 8.79427 17.0078 8.88281C17.1589 8.96615 17.2708 9.09375 17.3438 9.26562C17.4219 9.4375 17.4609 9.65885 17.4609 9.92969C17.4609 10.1484 17.4141 10.3542 17.3203 10.5469C17.2266 10.7396 17.0911 10.9297 16.9141 11.1172C16.737 11.3047 16.526 11.5 16.2812 11.7031C16.0052 11.9427 15.7865 12.2031 15.625 12.4844C15.4635 12.7656 15.349 13.0833 15.2812 13.4375C15.2188 13.7865 15.1875 14.1901 15.1875 14.6484ZM15.2734 16.0859C15.0026 16.3359 14.8672 16.6484 14.8672 17.0234C14.8672 17.3984 15.0026 17.7135 15.2734 17.9688C15.5443 18.2188 15.8958 18.3438 16.3281 18.3438C16.7604 18.3438 17.112 18.2188 17.3828 17.9688C17.6536 17.7135 17.7891 17.3984 17.7891 17.0234C17.7891 16.6484 17.6536 16.3359 17.3828 16.0859C17.112 15.8307 16.7604 15.7031 16.3281 15.7031C15.8958 15.7031 15.5443 15.8307 15.2734 16.0859Z" fill="#4C4646"/>
</g>
<defs>
<filter id="filter0_d_174_333" x="0" y="0" width="33" height="33" filterUnits="userSpaceOnUse" color-interpolation-filters="sRGB">
<feFlood flood-opacity="0" result="BackgroundImageFix"/>
<feColorMatrix in="SourceAlpha" type="matrix" values="0 0 0 0 0 0 0 0 0 0 0 0 0 0 0 0 0 0 127 0" result="hardAlpha"/>
<feOffset dy="4"/>
<feGaussianBlur stdDeviation="2"/>
<feComposite in2="hardAlpha" operator="out"/>
<feColorMatrix type="matrix" values="0 0 0 0 0 0 0 0 0 0 0 0 0 0 0 0 0 0 0.25 0"/>
<feBlend mode="normal" in2="BackgroundImageFix" result="effect1_dropShadow_174_333"/>
<feBlend mode="normal" in="SourceGraphic" in2="effect1_dropShadow_174_333" result="shape"/>
</filter>
</defs>
</svg>
