<svg width="25" height="27" viewBox="0 0 25 27" fill="none" xmlns="http://www.w3.org/2000/svg">
<ellipse cx="19" cy="3.76471" rx="6" ry="3.76471" fill="#4C4646"/>
<path fill-rule="evenodd" clip-rule="evenodd" d="M24.5639 21.8235C23.6738 23.2032 21.518 24.1765 19 24.1765C16.482 24.1765 14.3262 23.2032 13.4361 21.8235C13.1549 22.2595 13 22.7361 13 23.2353C13 25.3145 15.6863 27 19 27C22.3137 27 25 25.3145 25 23.2353C25 22.7361 24.8451 22.2595 24.5639 21.8235Z" fill="#4C4646"/>
<path fill-rule="evenodd" clip-rule="evenodd" d="M24.5639 18C23.6738 19.3797 21.518 20.353 19 20.353C16.482 20.353 14.3262 19.3797 13.4361 18C13.1549 18.436 13 18.9125 13 19.4118C13 21.4909 15.6863 23.1765 19 23.1765C22.3137 23.1765 25 21.4909 25 19.4118C25 18.9125 24.8451 18.436 24.5639 18Z" fill="#4C4646"/>
<path fill-rule="evenodd" clip-rule="evenodd" d="M24.5639 14C23.6738 15.3797 21.518 16.353 19 16.353C16.482 16.353 14.3262 15.3797 13.4361 14C13.1549 14.436 13 14.9125 13 15.4118C13 17.4909 15.6863 19.1765 19 19.1765C22.3137 19.1765 25 17.4909 25 15.4118C25 14.9125 24.8451 14.436 24.5639 14Z" fill="#4C4646"/>
<path fill-rule="evenodd" clip-rule="evenodd" d="M24.5639 10C23.6738 11.3797 21.518 12.353 19 12.353C16.482 12.353 14.3262 11.3797 13.4361 10C13.1549 10.436 13 10.9125 13 11.4118C13 13.4909 15.6863 15.1765 19 15.1765C22.3137 15.1765 25 13.4909 25 11.4118C25 10.9125 24.8451 10.436 24.5639 10Z" fill="#4C4646"/>
<path fill-rule="evenodd" clip-rule="evenodd" d="M24.5639 6C23.6738 7.37969 21.518 8.35296 19 8.35296C16.482 8.35296 14.3262 7.37969 13.4361 6C13.1549 6.43596 13 6.91251 13 7.41175C13 9.49094 15.6863 11.1765 19 11.1765C22.3137 11.1765 25 9.49094 25 7.41175C25 6.91251 24.8451 6.43597 24.5639 6Z" fill="#4C4646"/>
<ellipse cx="6" cy="11.7647" rx="6" ry="3.76471" fill="#4C4646"/>
<path fill-rule="evenodd" clip-rule="evenodd" d="M11.5639 21.8235C10.6738 23.2032 8.51804 24.1765 6 24.1765C3.48196 24.1765 1.3262 23.2032 0.436129 21.8235C0.154877 22.2595 0 22.7361 0 23.2353C0 25.3145 2.68629 27 6 27C9.31371 27 12 25.3145 12 23.2353C12 22.7361 11.8451 22.2595 11.5639 21.8235Z" fill="#4C4646"/>
<path fill-rule="evenodd" clip-rule="evenodd" d="M11.5639 18C10.6738 19.3797 8.51804 20.353 6 20.353C3.48196 20.353 1.3262 19.3797 0.436129 18C0.154877 18.436 0 18.9125 0 19.4118C0 21.4909 2.68629 23.1765 6 23.1765C9.31371 23.1765 12 21.4909 12 19.4118C12 18.9125 11.8451 18.436 11.5639 18Z" fill="#4C4646"/>
<path fill-rule="evenodd" clip-rule="evenodd" d="M11.5639 14C10.6738 15.3797 8.51804 16.353 6 16.353C3.48196 16.353 1.3262 15.3797 0.436129 14C0.154877 14.436 0 14.9125 0 15.4118C0 17.4909 2.68629 19.1765 6 19.1765C9.31371 19.1765 12 17.4909 12 15.4118C12 14.9125 11.8451 14.436 11.5639 14Z" fill="#4C4646"/>
</svg>
