<svg width="18" height="14" viewBox="0 0 18 14" fill="none" xmlns="http://www.w3.org/2000/svg">
<path d="M1.45946 5.6C0.651892 5.6 0 6.22533 0 7C0 7.77467 0.651892 8.4 1.45946 8.4C2.26703 8.4 2.91892 7.77467 2.91892 7C2.91892 6.22533 2.26703 5.6 1.45946 5.6ZM1.45946 0C0.651892 0 0 0.625333 0 1.4C0 2.17467 0.651892 2.8 1.45946 2.8C2.26703 2.8 2.91892 2.17467 2.91892 1.4C2.91892 0.625333 2.26703 0 1.45946 0ZM1.45946 11.2C0.651892 11.2 0 11.8347 0 12.6C0 13.3653 0.661622 14 1.45946 14C2.2573 14 2.91892 13.3653 2.91892 12.6C2.91892 11.8347 2.26703 11.2 1.45946 11.2ZM4.37838 13.5333H18V11.6667H4.37838V13.5333ZM4.37838 7.93333H18V6.06667H4.37838V7.93333ZM4.37838 0.466667V2.33333H18V0.466667H4.37838Z" fill="#4C4646"/>
</svg>
