<svg width="20" height="18" viewBox="0 0 20 18" fill="none" xmlns="http://www.w3.org/2000/svg">
<path d="M18.1818 2.862L7.80909 13.14L3.95455 9.324L5.23636 8.055L7.80909 10.602L16.9 1.602L18.1818 2.862ZM9.09091 16.2C5.08182 16.2 1.81818 12.969 1.81818 9C1.81818 5.031 5.08182 1.8 9.09091 1.8C10.5182 1.8 11.8545 2.214 12.9818 2.925L14.3 1.62C12.8182 0.603 11.0273 0 9.09091 0C4.07273 0 0 4.032 0 9C0 13.968 4.07273 18 9.09091 18C10.6636 18 12.1455 17.604 13.4364 16.902L12.0727 15.552C11.1636 15.966 10.1545 16.2 9.09091 16.2ZM15.4545 11.7H12.7273V13.5H15.4545V16.2H17.2727V13.5H20V11.7H17.2727V9H15.4545V11.7Z" fill="#4C4646"/>
</svg>
