<svg width="20" height="16" viewBox="0 0 20 16" fill="none" xmlns="http://www.w3.org/2000/svg">
<path d="M17.2727 4H14.5455V0H1.81818C0.818182 0 0 0.9 0 2V13H1.81818C1.81818 14.66 3.03636 16 4.54545 16C6.05455 16 7.27273 14.66 7.27273 13H12.7273C12.7273 14.66 13.9455 16 15.4545 16C16.9636 16 18.1818 14.66 18.1818 13H20V8L17.2727 4ZM16.8182 5.5L18.6 8H14.5455V5.5H16.8182ZM4.54545 14C4.04545 14 3.63636 13.55 3.63636 13C3.63636 12.45 4.04545 12 4.54545 12C5.04545 12 5.45455 12.45 5.45455 13C5.45455 13.55 5.04545 14 4.54545 14ZM6.56364 11C6.06364 10.39 5.35455 10 4.54545 10C3.73636 10 3.02727 10.39 2.52727 11H1.81818V2H12.7273V11H6.56364ZM15.4545 14C14.9545 14 14.5455 13.55 14.5455 13C14.5455 12.45 14.9545 12 15.4545 12C15.9545 12 16.3636 12.45 16.3636 13C16.3636 13.55 15.9545 14 15.4545 14Z" fill="#4C4646"/>
</svg>
