<svg width="25" height="25" viewBox="0 0 25 25" fill="none" xmlns="http://www.w3.org/2000/svg">
<path fill-rule="evenodd" clip-rule="evenodd" d="M16.25 2.38095C16.25 1.06599 14.5711 0 12.5 0C10.4289 0 8.75 1.06599 8.75 2.38095V4.06672C7.98442 3.74815 7.13888 3.57143 6.25 3.57143C2.79822 3.57143 0 6.2364 0 9.52381C0 12.8112 2.79822 15.4762 6.25 15.4762C7.13888 15.4762 7.98442 15.2995 8.75 14.9809V16.6667H10.625V25H14.375V16.6667H16.25V14.9809C17.0156 15.2995 17.8611 15.4762 18.75 15.4762C22.2018 15.4762 25 12.8112 25 9.52381C25 6.2364 22.2018 3.57143 18.75 3.57143C17.8611 3.57143 17.0156 3.74815 16.25 4.06672V2.38095ZM21.25 9.52381C21.25 10.8388 20.1307 11.9048 18.75 11.9048C17.3693 11.9048 16.25 10.8388 16.25 9.52381C16.25 8.20885 17.3693 7.14286 18.75 7.14286C20.1307 7.14286 21.25 8.20885 21.25 9.52381ZM6.25 11.9048C7.63071 11.9048 8.75 10.8388 8.75 9.52381C8.75 8.20885 7.63071 7.14286 6.25 7.14286C4.86929 7.14286 3.75 8.20885 3.75 9.52381C3.75 10.8388 4.86929 11.9048 6.25 11.9048Z" fill="#4C4646"/>
</svg>
